# xmcd
#
# Track frame offsets:
#	150
#	11994
#	29985
#	49532
#	63731
#	77076
#	94143
#	105239
#	115479
#	124686
#	138708
#	150574
#	169387
#	178616
#	192929
#	204404
#	221750
#	246700
#	262639
#	278928
#	302672
#	322739
#	338242
#
# Disc length: 4788 seconds
#
# Revision: 3
# Processed by: cddbd v1.5.2PL0 Copyright (c) Steve Scherf et al.
# Submitted via: EZCDAudioConverter 6.0.0.1
#
DISCID=5712b217
DTITLE=Various Artist - Akella Presents - vol.77 - Rockin' Rollers Blues  CD1
DYEAR=2016
DGENRE=Blues
TTITLE0=Big Woody Garrett - Flat Foot Sam
TTITLE1=John Campbelljohn - Baby Please Don't Go
TTITLE2=Bluebone - Party Tonight
TTITLE3=Bridget Kelly Band - Blue Cadillac
TTITLE4=Bill Carter - Road Block
TTITLE5=Tommy Castro - Shakin' the Hard Times Loose
TTITLE6=Jim Adams - Roll With the Punches
TTITLE7=Wilko Johnson - Hello Josephine
TTITLE8=Daddy Long Legs - Drives The Girls Crazy
TTITLE9=B.B. King and Elton John - Rock This House
TTITLE10=Shane Dwight - Lose My Number
TTITLE11=Ronnie Baker Brooks - Can't You See
TTITLE12=Helander Co - Lovey Dovey Lovey One
TTITLE13=Larry McCray - I'm A Lover Not A Fighter
TTITLE14=Keith Stone - Make Me Feel Alright
TTITLE15=Julian Sas - End Of The Line
TTITLE16=The Mannish Boys - Raunchy
TTITLE17=The Buddaheads - At Ten She's A Two
TTITLE18=Jimmy Thackery - She Needs Everything
TTITLE19=John Verity Band - Johnny B Goode
TTITLE20=Recydywa - Blues For Annie
TTITLE21=Nix, Don and Friends - Lucinda
TTITLE22=Foghat - Shake Your Money Maker
EXTD=
EXTT0=
EXTT1=
EXTT2=
EXTT3=
EXTT4=
EXTT5=
EXTT6=
EXTT7=
EXTT8=
EXTT9=
EXTT10=
EXTT11=
EXTT12=
EXTT13=
EXTT14=
EXTT15=
EXTT16=
EXTT17=
EXTT18=
EXTT19=
EXTT20=
EXTT21=
EXTT22=
PLAYORDER=
